# Blender v2.82 (sub 7) OBJ File: 'TankBase.blend'
# www.blender.org
mtllib TankBase.mtl
o Body
v 0.923077 1.000000 1.000000
v 0.746300 0.625000 1.375000
v 0.746300 0.375000 1.375000
v 0.923077 0.500000 1.250000
v 0.746300 0.095671 1.095671
v 0.746300 0.000000 0.864701
v 0.923077 0.176777 0.926777
v 0.746300 0.000000 -0.864701
v 0.746300 0.095671 -1.095671
v 0.923077 0.176503 -0.926503
v 0.923077 0.176777 -0.366938
v 0.746300 0.625000 -1.375000
v 0.923077 0.500000 -1.250000
v 0.746300 0.375000 -1.375000
v 0.746300 1.000000 -0.864701
v 0.923077 0.823223 -0.926777
v 0.746300 0.904329 -1.095671
v 0.746300 0.904329 1.095671
v 0.923077 0.823497 0.926503
v 0.923077 0.823223 0.366938
v 0.746300 1.000000 0.864701
v -0.900146 0.625000 1.375000
v -1.076923 0.500000 1.250000
v -0.900146 0.375000 1.375000
v -0.900146 0.904329 1.095671
v -0.900146 1.000000 0.864701
v -1.076923 0.823223 0.366938
v -1.076923 0.823497 0.926503
v -0.900146 1.000000 -0.864701
v -0.900146 0.904329 -1.095671
v -1.076923 0.823223 -0.926777
v -0.900146 0.625000 -1.375000
v -0.900146 0.375000 -1.375000
v -1.076923 0.500000 -1.250000
v -0.900146 0.095671 1.095671
v -1.076923 0.176777 0.926777
v -0.900146 0.000000 0.864701
v -0.900146 0.000000 -0.864701
v -1.076923 0.176777 -0.366938
v -1.076923 0.176503 -0.926503
v -0.900146 0.095671 -1.095671
vt 0.000000 0.000000
vt 0.000000 0.000000
vt 0.000000 0.000000
vt 0.000000 0.000000
vt 0.000000 0.000000
vt 0.000000 0.000000
vt 0.000000 0.000000
vt 0.000000 0.000000
vt 0.000000 0.000000
vt 0.000000 0.000000
vt 0.000000 0.000000
vt 0.000000 0.000000
vt 0.000000 0.000000
vt 0.000000 0.000000
vt 0.000000 0.000000
vt 0.000000 0.000000
vt 0.000000 0.000000
vt 0.000000 0.000000
vt 0.000000 0.000000
vt 0.000000 0.000000
vt 0.000000 0.000000
vt 0.000000 0.000000
vt 0.000000 0.000000
vt 0.000000 0.000000
vt 0.000000 0.000000
vt 0.000000 0.000000
vt 0.000000 0.000000
vt 0.000000 0.000000
vt 0.000000 0.000000
vt 0.000000 0.000000
vt 0.000000 0.000000
vt 0.000000 0.000000
vt 0.000000 0.000000
vt 0.000000 0.000000
vt 0.000000 0.000000
vt 0.000000 0.000000
vt 0.000000 0.000000
vt 0.000000 0.000000
vt 0.000000 0.000000
vt 0.000000 0.000000
vn -0.0000 -0.7071 0.7071
vn 0.0000 0.7071 -0.7071
vn -1.0000 0.0000 0.0000
vn -0.0000 -0.7071 -0.7071
vn 0.0000 1.0000 -0.0000
vn 1.0000 0.0000 -0.0000
vn -0.0000 -1.0000 0.0000
vn 0.5774 0.0000 0.8165
vn 0.6197 -0.7251 0.3004
vn 0.6885 -0.7200 -0.0869
vn 0.5774 0.0000 -0.8165
vn 0.6197 0.7251 -0.3004
vn 0.6885 0.7200 0.0869
vn -0.5774 0.0000 0.8165
vn -0.6885 0.7200 0.0869
vn -0.6197 0.7251 -0.3004
vn -0.5774 0.0000 -0.8165
vn -0.6197 -0.7251 0.3004
vn -0.6885 -0.7200 -0.0869
vn 0.7071 0.5000 0.5000
vn 0.7071 0.7071 -0.0000
vn 0.7071 0.5000 -0.5000
vn 0.7071 -0.5000 0.5000
vn 0.7071 -0.7071 0.0000
vn 0.7071 -0.5000 -0.5000
vn -0.7071 0.5000 0.5000
vn -0.7071 0.7071 0.0000
vn -0.7071 0.5000 -0.5000
vn -0.7071 -0.5000 0.5000
vn -0.7071 -0.7071 0.0000
vn -0.7071 -0.5000 -0.5000
vn -0.0000 -0.9239 0.3827
vn -0.0000 -0.9239 -0.3827
vn -0.0000 0.0000 -1.0000
vn 0.0000 0.9239 -0.3827
vn 0.0000 0.9239 0.3827
vn -0.0000 0.0000 1.0000
vn 0.0000 0.7071 0.7071
usemtl None
s off
f 5/1/1 3/2/1 24/3/1 35/4/1
f 17/5/2 12/6/2 32/7/2 30/8/2
f 31/9/3 34/10/3 40/11/3 27/12/3
f 14/13/4 9/14/4 41/15/4 33/16/4
f 21/17/5 15/18/5 29/19/5 26/20/5
f 19/21/6 4/22/6 7/23/6 11/24/6
f 16/25/6 20/26/6 10/27/6 13/28/6
f 8/29/7 6/30/7 37/31/7 38/32/7
f 28/33/3 39/34/3 36/35/3 23/36/3
f 2/37/8 3/2/8 4/22/8
f 5/1/9 6/30/9 7/23/9
f 8/29/10 9/14/10 10/27/10 11/24/10
f 12/6/11 13/28/11 14/13/11
f 15/18/12 16/25/12 17/5/12
f 18/38/13 19/21/13 20/26/13 21/17/13
f 22/39/14 23/36/14 24/3/14
f 25/40/15 26/20/15 27/12/15 28/33/15
f 29/19/16 30/8/16 31/9/16
f 32/7/17 33/16/17 34/10/17
f 35/4/18 36/35/18 37/31/18
f 38/32/19 39/34/19 40/11/19 41/15/19
f 4/22/20 19/21/20 18/38/20 2/37/20
f 15/18/21 21/17/21 20/26/21 16/25/21
f 12/6/22 17/5/22 16/25/22 13/28/22
f 3/2/23 5/1/23 7/23/23 4/22/23
f 6/30/24 8/29/24 11/24/24 7/23/24
f 9/14/25 14/13/25 13/28/25 10/27/25
f 10/27/6 20/26/6 19/21/6 11/24/6
f 22/39/26 25/40/26 28/33/26 23/36/26
f 31/9/27 27/12/27 26/20/27 29/19/27
f 34/10/28 31/9/28 30/8/28 32/7/28
f 23/36/29 36/35/29 35/4/29 24/3/29
f 36/35/30 39/34/30 38/32/30 37/31/30
f 40/11/31 34/10/31 33/16/31 41/15/31
f 39/34/3 28/33/3 27/12/3 40/11/3
f 5/1/32 35/4/32 37/31/32 6/30/32
f 41/15/33 9/14/33 8/29/33 38/32/33
f 14/13/34 33/16/34 32/7/34 12/6/34
f 29/19/35 15/18/35 17/5/35 30/8/35
f 21/17/36 26/20/36 25/40/36 18/38/36
f 24/3/37 3/2/37 2/37/37 22/39/37
f 2/37/38 18/38/38 25/40/38 22/39/38
