# Blender v2.80 (sub 75) OBJ File: 'TankBase.blend'
# www.blender.org
mtllib TankBase.mtl
o BezierCurve_BezierCurve.003
v 1.000000 1.000000 -0.000000
v 1.000000 1.000000 -1.000000
v 1.000000 0.500000 -1.500000
v 1.000000 -0.000000 -1.000000
v 1.000000 -0.000000 1.000000
v 1.000000 0.500000 1.500000
v 1.000000 1.000000 1.000000
v -1.000000 1.000000 0.000000
v -1.000000 1.000000 -1.000000
v -1.000000 0.500000 -1.500000
v -1.000000 0.000000 -1.000000
v -1.000000 0.000000 1.000000
v -1.000000 0.500000 1.500000
v -1.000000 1.000000 1.000000
v -1.000000 1.000000 0.000000
v 1.000000 1.000000 -0.000000
v -1.000000 1.000000 -1.000000
v 1.000000 1.000000 -1.000000
v -1.000000 0.500000 -1.500000
v 1.000000 0.500000 -1.500000
v -1.000000 0.000000 -1.000000
v 1.000000 -0.000000 -1.000000
v -1.000000 0.000000 1.000000
v 1.000000 -0.000000 1.000000
v -1.000000 0.500000 1.500000
v 1.000000 0.500000 1.500000
v -1.000000 1.000000 1.000000
v 1.000000 1.000000 1.000000
vn 1.0000 -0.0000 -0.0000
vn -1.0000 0.0000 0.0000
vn 0.0000 1.0000 0.0000
vn 0.0000 0.9239 -0.3827
vn 0.0000 0.0000 -1.0000
vn 0.0000 -0.9239 -0.3827
vn 0.0000 -0.9239 0.3827
vn 0.0000 0.0000 1.0000
vn 0.0000 0.9239 0.3827
usemtl None
s off
f 6//1 1//1 7//1
f 6//1 2//1 1//1
f 6//1 3//1 2//1
f 5//1 3//1 6//1
f 5//1 4//1 3//1
f 8//2 13//2 14//2
f 9//2 13//2 8//2
f 10//2 13//2 9//2
f 10//2 12//2 13//2
f 11//2 12//2 10//2
s 1
f 16//3 18//4 17//4 15//3
f 18//4 20//5 19//5 17//4
f 20//5 22//6 21//6 19//5
f 22//6 24//7 23//7 21//6
f 24//7 26//8 25//8 23//7
f 26//8 28//9 27//9 25//8
f 28//9 16//3 15//3 27//9
